<?xml version="1.0" encoding="utf-8"?>
<!-- Generator: Adobe Illustrator 24.3.0, SVG Export Plug-In . SVG Version: 6.00 Build 0)  -->
<svg version="1.1" id="Слой_1" xmlns="http://www.w3.org/2000/svg" xmlns:xlink="http://www.w3.org/1999/xlink" x="0px" y="0px"
	 viewBox="0 0 2588 328" style="enable-background:new 0 0 2588 328;" xml:space="preserve">
<style type="text/css">
	.st0{fill:#FFFFFF;}
	.st1{fill:#002E6E;}
	.st2{fill:#1C7ED6;}
	.st3{fill-rule:evenodd;clip-rule:evenodd;fill:#1C7ED6;}
	.st4{display:none;}
	.st5{display:inline;fill:#102D69;}
	.st6{display:inline;}
	.st7{fill:#EDEDED;}
	.st8{display:inline;fill:#EDEDED;}
</style>
<path class="st0" d="M191.7,149c10.6-4.4,17.1-11.1,21.4-16.2c8.1-9.3,11.4-20.7,11.4-31.6c0-8.7-2.4-26.2-17.7-38.2
	c-10.5-8.1-19.8-12-42.1-12h-11.3c-0.4,0-0.7,0-1.1,0h-46.4v219.2h132.6v-42.1C238.4,187.9,225.4,160.9,191.7,149 M208.4,258.2
	h-23.9V185h-27.6v73.3h-21.1V62h21.7c8.1,0,20.4,1.8,29.2,12.6c4.5,5.5,7.3,12.8,8.3,20.1h-38v10.8h38.4c-0.3,7-1.7,14.8-8.6,23.1
	c-6,7.5-15.9,14.5-29.8,14.5h-0.2v11c37.3,0,51.8,24.8,51.8,70.1L208.4,258.2L208.4,258.2z"/>
<path class="st1" d="M156.6,154v-10.9h0.2c13.9,0,23.8-7,29.8-14.5c6.8-8.3,8.3-16.1,8.6-23.1h-38.4V94.7h38
	c-1-7.3-3.8-14.6-8.3-20.1c-8.7-10.8-21-12.6-29.2-12.6h-21.7v196.3h21.1V185h27.6v73.2h23.9v-34.1C208.4,178.8,193.9,154,156.6,154
	"/>
<path class="st2" d="M163.7,0C73.3,0,0,73.3,0,163.7s73.3,163.7,163.7,163.7s163.7-73.3,163.7-163.7S254.1,0,163.7,0 M238.4,270.3
	H105.9V51h46.4c0.4,0,0.8,0,1.1,0h11.3c22.2,0,31.6,3.9,42.1,12c15.3,12,17.7,29.4,17.7,38.2c0,10.8-3.3,22.2-11.4,31.6
	c-4.2,5.1-10.7,11.8-21.4,16.2c33.7,11.9,46.7,39,46.7,79.2L238.4,270.3L238.4,270.3z M447.3,91.5h57.5v-40h10.5v94h-10.5v-43.8
	h-57.5v43.8h-10.5v-94h10.5V91.5L447.3,91.5z"/>
<path class="st3" d="M548.5,51.5H538v94h10.5V51.5z"/>
<path class="st2" d="M650,76.2c-6.8-9.9-18.3-16.5-31.7-16.5c-21.9,0-38.4,17.3-38.4,38.8s16.5,38.8,38.4,38.8
	c12.2,0,23-5.6,29.7-14.5v-15.2h-32.4V97.4h42.8v29.1c-8.9,12.6-23.6,20.9-40.1,20.9c-27.1,0-49-21.9-49-49s21.9-49,49-49
	c16.5,0,31.1,8.2,40,20.8L650,76.2L650,76.2z M687.7,91.5h57.5v-40h10.5v94h-10.5v-43.8h-57.5v43.8h-10.5v-94h10.5V91.5L687.7,91.5z
	 M825.1,145.5h-46.6v-94h46.6v10.2H789v29.8h32.8v10.2H789v33.6h36.1V145.5L825.1,145.5z M852.3,109.7v35.7h-10.5v-94h27
	c16.4,0,30.1,12.6,30.1,29.3c0,14-10.3,25.4-24,27.5c7.8,3.1,13.8,27.3,27,27.3c1.2,0,2.4-0.1,3.5-0.5v10.5
	c-1.9,0.5-3.9,0.8-5.9,0.8c-21.8,0-28.6-36.5-36.2-36.5L852.3,109.7L852.3,109.7z M867.9,99.5c10.9,0,20.7-7.4,20.7-18.8
	s-9.8-19.1-20.7-19.1h-15.6v37.9H867.9z M1018.2,119.1c0,15.3-13,28.3-33,28.3c-13.4,0-23-5.2-32.9-15.2l6.4-7.9
	c8.5,8.2,16,13.2,26.5,13.2c14.1,0,22.4-8.7,22.4-18.3c0-24.7-52.2-7.5-52.2-44.6c0-15.2,11.8-25.2,29.4-25.2
	c14,0,22.2,5.2,32.1,14.6l-6.6,8.5c-8.6-8.6-14.9-13.3-25.6-13.3c-11.5,0-19.2,6-19.2,15.4C965.5,99.9,1018.2,82.9,1018.2,119.1
	 M1030.3,98.5c0-27.1,21.9-49,49-49c16.5,0,31.2,8.2,40,20.8l-8.3,5.9c-6.8-9.9-18.3-16.5-31.7-16.5c-21.9,0-38.4,17.3-38.4,38.8
	s16.5,38.8,38.4,38.8c13.4,0,24.8-6.6,31.7-16.5l8.3,5.9c-8.9,12.6-23.5,20.8-40,20.8C1052.2,147.5,1030.3,125.6,1030.3,98.5
	 M1148.6,91.5h57.5v-40h10.5v94h-10.5v-43.8h-57.5v43.8h-10.5v-94h10.5V91.5z M1285.4,49.5c27,0,48.1,21.9,48.1,49s-21.1,49-48.1,49
	c-27.1,0-48.1-21.9-48.1-49C1237.3,71.3,1258.3,49.5,1285.4,49.5 M1285.4,137.3c21.9,0,37.5-17.3,37.5-38.8s-15.6-38.8-37.5-38.8
	s-37.5,17.3-37.5,38.8C1247.9,119.9,1263.5,137.3,1285.4,137.3 M1396.3,49.5c27,0,48.1,21.9,48.1,49s-21.1,49-48.1,49
	c-27.1,0-48.1-21.9-48.1-49C1348.2,71.3,1369.2,49.5,1396.3,49.5 M1396.3,137.3c21.9,0,37.5-17.3,37.5-38.8s-15.6-38.8-37.5-38.8
	s-37.5,17.3-37.5,38.8C1358.8,119.9,1374.4,137.3,1396.3,137.3 M1465.2,51.5h10.5v83.8h36.1v10.2h-46.6V51.5z M1610.8,49.5
	c27,0,48.1,21.9,48.1,49s-21.1,49-48.1,49c-27.1,0-48.1-21.9-48.1-49C1562.8,71.3,1583.7,49.5,1610.8,49.5 M1610.8,137.3
	c21.9,0,37.5-17.3,37.5-38.8s-15.6-38.8-37.5-38.8s-37.5,17.3-37.5,38.8C1573.4,119.9,1589,137.3,1610.8,137.3 M1679.7,51.5h46.6
	v10.2h-36.1v29.8h32.8v10.2h-32.8v43.8h-10.5V51.5z M1825.9,145.5h-46.6v-94h46.6v10.2h-36.1v29.8h32.8v10.2h-32.8v33.6h36.1V145.5
	L1825.9,145.5z M1840.7,98.5c0-27.1,21.9-49,49-49c16.5,0,31.2,8.2,40,20.8l-8.3,5.9c-6.8-9.9-18.3-16.5-31.7-16.5
	c-21.9,0-38.4,17.3-38.4,38.8s16.5,38.8,38.4,38.8c13.4,0,24.8-6.6,31.7-16.5l8.3,5.9c-8.9,12.6-23.5,20.8-40,20.8
	C1862.6,147.5,1840.7,125.6,1840.7,98.5 M1990.5,49.5c27,0,48.1,21.9,48.1,49s-21.1,49-48.1,49c-27.1,0-48.1-21.9-48.1-49
	C1942.4,71.3,1963.4,49.5,1990.5,49.5 M1990.5,137.3c21.9,0,37.5-17.3,37.5-38.8s-15.6-38.8-37.5-38.8S1953,77,1953,98.5
	C1953,119.9,1968.6,137.3,1990.5,137.3 M2127.3,127.3V51.5h10.5v94h-10.5l-57.5-75.7v75.7h-10.5v-94h10.5L2127.3,127.3z
	 M2206.6,49.5c27,0,48.1,21.9,48.1,49s-21.1,49-48.1,49c-27.1,0-48.1-21.9-48.1-49C2158.6,71.3,2179.5,49.5,2206.6,49.5
	 M2206.6,137.3c21.9,0,37.5-17.3,37.5-38.8s-15.6-38.8-37.5-38.8s-37.5,17.3-37.5,38.8C2169.2,119.9,2184.8,137.3,2206.6,137.3
	 M2278.6,51.5h4.3l36.9,74.9l37.3-74.9h4.3l8.5,94h-10.6l-5.6-63.2l-31.4,63.2h-4.4l-31.4-63.2l-5.6,63.2h-10.6
	C2270.1,145.5,2278.6,51.5,2278.6,51.5z"/>
<path class="st3" d="M2400.5,51.5H2390v94h10.5V51.5z"/>
<path class="st2" d="M2421.3,98.5c0-27.1,21.9-49,49-49c16.5,0,31.1,8.2,40,20.8l-8.3,5.9c-6.8-9.9-18.3-16.5-31.7-16.5
	c-21.9,0-38.4,17.3-38.4,38.8s16.5,38.8,38.4,38.8c13.4,0,24.8-6.6,31.7-16.5l8.3,5.9c-8.9,12.6-23.5,20.8-40,20.8
	C2443.2,147.5,2421.3,125.6,2421.3,98.5 M2587.6,119.1c0,15.3-13,28.3-33,28.3c-13.4,0-23-5.2-32.9-15.2l6.4-7.9
	c8.5,8.2,16,13.2,26.4,13.2c14.1,0,22.4-8.7,22.4-18.3c0-24.7-52.2-7.5-52.2-44.6c0-15.2,11.8-25.2,29.4-25.2
	c14,0,22.2,5.2,32.1,14.6l-6.6,8.5c-8.6-8.6-14.9-13.3-25.6-13.3c-11.6,0-19.2,6-19.2,15.4C2534.9,99.9,2587.6,82.9,2587.6,119.1"/>
<g>
	<path class="st2" d="M435.3,215.2h8V272h-8V215.2z M439.4,242.4h18.2c1.7,0,3.2-0.4,4.5-1.2s2.3-2,3-3.4c0.7-1.5,1.1-3.2,1.1-5.1
		c0-2-0.4-3.7-1.1-5.2s-1.7-2.6-3-3.5c-1.3-0.8-2.8-1.2-4.5-1.2h-18.2v-7.6h17.9c3.4,0,6.4,0.7,8.9,2.2s4.6,3.5,6,6.1
		s2.1,5.7,2.1,9.1c0,3.5-0.7,6.5-2.1,9.1s-3.4,4.6-6,6.1c-2.6,1.4-5.6,2.1-8.9,2.1h-17.9V242.4z"/>
	<path class="st2" d="M496.3,215.2h8V272h-8V215.2z M501.2,240.3h31.5v7.6h-31.5V240.3z M528.5,215.2h8V272h-8V215.2z"/>
	<path class="st2" d="M581.2,248.9V272h-8v-23.1l-17.3-33.7h8.9l12.4,25.6l12.4-25.6h8.9L581.2,248.9z"/>
	<path class="st2" d="M624.9,271.8c-2.4-0.5-4.7-1.3-6.9-2.3c-2.1-1-4.1-2.3-6-3.9l5-6.1c2.2,1.9,4.5,3.3,7.1,4.2
		c2.6,0.9,5.4,1.4,8.5,1.4c4.1,0,7.3-0.8,9.6-2.3s3.4-3.7,3.4-6.5l0,0c0-2-0.5-3.5-1.5-4.7s-2.4-2-4-2.6s-3.7-1.1-6.3-1.5
		c-0.1,0-0.2,0-0.3,0s-0.2,0-0.3,0l-0.6-0.1c-3.8-0.7-6.9-1.4-9.3-2.2s-4.4-2.3-6.1-4.5c-1.7-2.2-2.5-5.3-2.5-9.3l0,0
		c0-3.5,0.8-6.5,2.4-9c1.6-2.5,3.9-4.4,6.9-5.7s6.7-2,10.9-2c2,0,4,0.2,6,0.7c2,0.4,3.9,1.1,5.8,2c1.9,0.9,3.8,2,5.6,3.3l-4.5,6.3
		c-2.2-1.6-4.3-2.8-6.5-3.6c-2.1-0.8-4.3-1.2-6.5-1.2c-3.9,0-6.9,0.8-9,2.3s-3.2,3.7-3.2,6.6l0,0c0,2,0.6,3.5,1.7,4.6
		c1.1,1.1,2.5,1.9,4.1,2.5c1.7,0.5,4,1.1,6.9,1.7c0.1,0,0.2,0,0.3,0.1c0.1,0,0.2,0,0.3,0.1c0.1,0,0.3,0.1,0.4,0.1
		c0.2,0,0.3,0.1,0.4,0.1c3.4,0.7,6.3,1.5,8.6,2.5s4.2,2.5,5.8,4.7c1.5,2.1,2.3,5.1,2.3,8.8v0.1c0,3.5-0.8,6.4-2.5,8.9
		s-4,4.3-7.1,5.6c-3.1,1.3-6.9,1.9-11.3,1.9C629.9,272.6,627.3,272.4,624.9,271.8z"/>
	<path class="st2" d="M684,272h-8v-56.8h8V272z"/>
	<path class="st2" d="M718.3,270c-3-1.7-5.3-4.2-6.9-7.4s-2.5-6.9-2.5-11.1v-15.6c0-4.2,0.8-7.9,2.5-11.1s4-5.7,6.9-7.4
		c3-1.8,6.4-2.6,10.4-2.6c3.3,0,6.2,0.7,9,2.1c2.7,1.4,5,3.4,6.9,5.9c1.8,2.6,3.1,5.5,3.7,8.9h-8.2c-0.5-1.8-1.3-3.4-2.5-4.7
		c-1.2-1.4-2.5-2.5-4.1-3.2c-1.6-0.8-3.2-1.1-4.8-1.1c-2.3,0-4.3,0.6-6.1,1.7c-1.7,1.1-3.1,2.7-4.1,4.7s-1.4,4.4-1.4,7.1v15.6
		c0,2.7,0.5,5,1.4,7c1,2,2.3,3.6,4.1,4.7c1.7,1.1,3.8,1.7,6.1,1.7c1.7,0,3.3-0.4,4.9-1.1c1.5-0.7,2.9-1.7,4.1-3.1
		c1.2-1.4,2-3,2.5-4.9h8.2c-0.7,3.4-1.9,6.3-3.8,8.9c-1.8,2.6-4.1,4.5-6.9,5.9c-2.7,1.4-5.7,2.1-8.9,2.1
		C724.8,272.6,721.3,271.7,718.3,270z"/>
	<path class="st2" d="M779.3,271.8c-2.4-0.5-4.7-1.3-6.9-2.3c-2.1-1-4.1-2.3-6-3.9l5-6.1c2.2,1.9,4.5,3.3,7.1,4.2
		c2.6,0.9,5.4,1.4,8.5,1.4c4.1,0,7.3-0.8,9.6-2.3s3.4-3.7,3.4-6.5l0,0c0-2-0.5-3.5-1.5-4.7s-2.4-2-4-2.6s-3.7-1.1-6.3-1.5
		c-0.1,0-0.2,0-0.3,0s-0.2,0-0.3,0l-0.6-0.1c-3.8-0.7-6.9-1.4-9.3-2.2s-4.4-2.3-6.1-4.5c-1.7-2.2-2.5-5.3-2.5-9.3l0,0
		c0-3.5,0.8-6.5,2.4-9c1.6-2.5,3.9-4.4,6.9-5.7s6.7-2,10.9-2c2,0,4,0.2,6,0.7c2,0.4,3.9,1.1,5.8,2c1.9,0.9,3.8,2,5.6,3.3l-4.5,6.3
		c-2.2-1.6-4.3-2.8-6.5-3.6c-2.1-0.8-4.3-1.2-6.5-1.2c-3.9,0-6.9,0.8-9,2.3s-3.2,3.7-3.2,6.6l0,0c0,2,0.6,3.5,1.7,4.6
		c1.1,1.1,2.5,1.9,4.1,2.5c1.7,0.5,4,1.1,6.9,1.7c0.1,0,0.2,0,0.3,0.1c0.1,0,0.2,0,0.3,0.1c0.1,0,0.3,0.1,0.4,0.1
		c0.2,0,0.3,0.1,0.4,0.1c3.4,0.7,6.3,1.5,8.6,2.5s4.2,2.5,5.8,4.7c1.5,2.1,2.3,5.1,2.3,8.8v0.1c0,3.5-0.8,6.4-2.5,8.9
		s-4,4.3-7.1,5.6c-3.1,1.3-6.9,1.9-11.3,1.9C784.4,272.6,781.8,272.4,779.3,271.8z"/>
	<path class="st2" d="M864.8,215.2h8V272h-8V215.2z M868.7,215.2h31.8v7.6h-31.8V215.2z M868.7,240.5h27.5v7.6h-27.5V240.5z"/>
	<path class="st2" d="M933.1,215.2h6.8l20.9,56.8h-8.6l-15.7-45.8L920.7,272h-8.6L933.1,215.2z M921.8,252h29.9v7.6h-29.9V252z"/>
	<path class="st2" d="M986.5,270c-3-1.7-5.3-4.2-6.9-7.4s-2.5-6.9-2.5-11.1v-15.6c0-4.2,0.8-7.9,2.5-11.1s4-5.7,6.9-7.4
		c3-1.8,6.4-2.6,10.4-2.6c3.3,0,6.2,0.7,9,2.1c2.7,1.4,5,3.4,6.9,5.9c1.8,2.6,3.1,5.5,3.7,8.9h-8.2c-0.5-1.8-1.3-3.4-2.5-4.7
		c-1.2-1.4-2.5-2.5-4.1-3.2c-1.6-0.8-3.2-1.1-4.8-1.1c-2.3,0-4.3,0.6-6.1,1.7c-1.7,1.1-3.1,2.7-4.1,4.7s-1.4,4.4-1.4,7.1v15.6
		c0,2.7,0.5,5,1.4,7c1,2,2.3,3.6,4.1,4.7c1.7,1.1,3.8,1.7,6.1,1.7c1.7,0,3.3-0.4,4.9-1.1c1.5-0.7,2.9-1.7,4.1-3.1
		c1.2-1.4,2-3,2.5-4.9h8.2c-0.7,3.4-1.9,6.3-3.8,8.9c-1.8,2.6-4.1,4.5-6.9,5.9c-2.7,1.4-5.7,2.1-8.9,2.1
		C992.9,272.6,989.5,271.7,986.5,270z"/>
	<path class="st2" d="M1046.6,270.1c-3-1.7-5.3-4.1-6.8-7.2s-2.3-7-2.3-11.4v-36.2h8v36.5c0,4.1,1,7.3,3.1,9.6s5,3.4,8.8,3.4
		s6.8-1.1,8.9-3.4s3.1-5.5,3.1-9.6v-36.5h8v36.2c0,4.5-0.8,8.3-2.3,11.4s-3.8,5.6-6.8,7.2c-3,1.7-6.6,2.5-10.8,2.5
		C1053.1,272.6,1049.6,271.8,1046.6,270.1z"/>
	<path class="st2" d="M1101.8,215.2h8V272h-8V215.2z M1105.8,264.5h32.5v7.6h-32.5V264.5z"/>
	<path class="st2" d="M1149.5,215.2h40.1v7.6h-40.1V215.2z M1165.6,219.9h8V272h-8V219.9z"/>
	<path class="st2" d="M1229.6,248.9V272h-8v-23.1l-17.3-33.7h8.9l12.4,25.6l12.4-25.6h8.9L1229.6,248.9z"/>
</g>
<g id="Слой_3" class="st4">
	<ellipse class="st5" cx="163.7" cy="164" rx="163.7" ry="164"/>
	<g class="st6">
		<rect x="145.5" y="274.8" class="st7" width="39" height="0.1"/>
		<path class="st7" d="M246.9,156.3V156c-6.1-26.8-26.5-47.4-63.2-54.1c0.1-10.1,0.2-20.2,0.4-30.3l28.2-3.3V53.1h-94.7v15.3
			l28.3,3.2c0.2,10,0.3,20.1,0.4,30.2c-18.6,3.2-33,9.9-43.7,19.1c-10.9,9.4-17.7,21.5-20.8,35.2c0,0,0,0.1,0,0.2
			c-0.3,2.3-0.5,4.6-0.5,6.9c0,2.3,0.2,4.7,0.5,6.9c0,0,0,0.1,0,0.2c6.1,27.1,26.9,47.8,64.5,54.3c-0.1,10.7-0.2,21.4-0.4,31.8
			l-28.3,3.2v15.2h94.7v-15.2l-28.2-3.5c-0.2-10.4-0.3-21.1-0.4-31.8c17.9-3.3,31.9-9.9,42.3-18.9c10.9-9.4,17.7-21.5,20.8-35.2V170
			c0.3-2.3,0.6-4.5,0.6-6.8C247.4,160.9,247.2,158.5,246.9,156.3z M146.4,171.7c0,13.8,0,28.1-0.1,42.3c-7.5-1.1-14.2-3.5-19.9-7
			c0-0.1-0.1-0.1-0.1-0.1c-9.2-5.8-15.9-14.6-19.8-25.4c-1.2-3.5-2.2-7.2-2.8-11.1c-0.3-2.3-0.5-4.7-0.5-7.1s0.2-4.8,0.5-7.2
			c0.6-3.7,1.5-7.2,2.7-10.5v-0.1c3.9-11.2,10.6-20.1,20.1-26c0.1,0,0.1,0,0.1,0c5.6-3.5,12.2-5.9,19.7-6.9
			c0.1,15.1,0.1,30.2,0.1,45.1L146.4,171.7L146.4,171.7z M224.9,170.3c-0.6,3.9-1.6,7.6-2.8,11.1c-3.9,10.9-10.5,19.6-19.8,25.4
			c-5.4,3.4-11.6,5.7-18.7,6.9c-0.1-14.4-0.1-28.7-0.1-42.1v-14.4c0-14.8,0-29.7,0.1-44.6c7,1.1,13.1,3.4,18.4,6.7
			c0.1,0,0.1,0,0.1,0c9.4,5.9,16.2,14.9,20.1,26c0,0,0,0,0,0.1c1.1,3.4,2,6.9,2.7,10.6c0.3,2.3,0.5,4.7,0.5,7.2
			S225.2,167.9,224.9,170.3z"/>
	</g>
	<path class="st8" d="M272.8,175.1c-5.4,33.7-32.1,58.8-83.7,61v-6.5c38.3-6.2,59.6-27.1,65.7-54.5H272.8z"/>
	<path class="st8" d="M55.8,175.1c5.4,33.7,32.1,58.8,83.7,61v-6.5c-38.3-6.2-59.6-27.1-65.7-54.5H55.8z"/>
	<path class="st8" d="M55.8,151.2c5.4-33.7,32.1-58.8,83.7-61v6.5c-38.3,6.2-59.6,27.1-65.7,54.5H55.8z"/>
	<path class="st8" d="M272.8,151.2c-5.4-33.7-32.1-58.8-83.7-61v6.5c38.3,6.2,59.6,27.1,65.7,54.5H272.8z"/>
</g>
<g id="Слой_3__x28_копия_x29_">
	<circle class="st2" cx="165" cy="163.7" r="163.7"/>
	<g>
		<polygon class="st7" points="117.1,51 213.7,51 213.7,66.5 171,71.5 160.6,71.5 117.1,66.5 		"/>
		<polygon class="st7" points="117.1,261 161.5,256 172.8,256 213.7,261 213.7,276.5 117.1,276.5 		"/>
		<path class="st7" d="M146.5,171.5v-14.3c0-35.1,0-71.2-1-106.1h39.8c-0.8,34.6-1,70.5-1,105.7v14.7c0,33.3,0.2,71.5,1,105.1h-39.7
			C146.5,243.2,146.5,206.2,146.5,171.5z"/>
		<path class="st7" d="M95.3,240.5C95.3,240.5,95.3,240.4,95.3,240.5C95.4,240.5,95.3,240.5,95.3,240.5z"/>
	</g>
	<path class="st7" d="M275.4,175.1c-5.5,34.2-32.7,59.8-85.3,62.1v-17.5c25-3,40.5-20.2,44.6-44.6H275.4L275.4,175.1z"/>
	<path class="st7" d="M141.2,105.6c0-5.8-0.1-11.5-0.1-17.4c-55,2.5-84.4,32.8-86.2,69.7h40.7C96.8,127.6,112.2,108.4,141.2,105.6z"
		/>
	<path class="st7" d="M140.2,219.7v17.5c-52.7-2.4-79.8-27.8-85.3-62.1h40.7C99.5,199.3,115.1,216.6,140.2,219.7z"/>
	<path class="st7" d="M190,105.6c0-5.8,0.1-11.5,0.1-17.4c55,2.5,84.4,32.8,86.2,69.7h-40.7C234.3,127.6,218.9,108.4,190,105.6z"/>
</g>
</svg>
